<?xml version="1.0" encoding="UTF-8" standalone="no"?>
<!-- Created with Inkscape (http://www.inkscape.org/) -->

<svg
   xmlns:dc="http://purl.org/dc/elements/1.1/"
   xmlns:cc="http://creativecommons.org/ns#"
   xmlns:rdf="http://www.w3.org/1999/02/22-rdf-syntax-ns#"
   xmlns:svg="http://www.w3.org/2000/svg"
   xmlns="http://www.w3.org/2000/svg"
   xmlns:sodipodi="http://sodipodi.sourceforge.net/DTD/sodipodi-0.dtd"
   xmlns:inkscape="http://www.inkscape.org/namespaces/inkscape"
   inkscape:version="0.91 r13725"
   version="1.1"
   id="svg2"
   viewBox="0 0 744.09448819 1052.3622047"
   height="297mm"
   width="210mm"
   sodipodi:docname="Logo (Prototipos).svg">
  <defs
     id="defs4">
    <filter
       inkscape:collect="always"
       style="color-interpolation-filters:sRGB"
       id="filter5110"
       x="-0.031372175"
       width="1.0627443"
       y="-0.033497455"
       height="1.0669949">
      <feGaussianBlur
         inkscape:collect="always"
         stdDeviation="3.3970693"
         id="feGaussianBlur5112" />
    </filter>
    <filter
       inkscape:collect="always"
       style="color-interpolation-filters:sRGB"
       id="filter5280"
       x="-0.029048248"
       width="1.0580965"
       y="-0.031016232"
       height="1.0620325">
      <feGaussianBlur
         inkscape:collect="always"
         stdDeviation="2.8848023"
         id="feGaussianBlur5282" />
    </filter>
  </defs>
  <sodipodi:namedview
     inkscape:window-maximized="1"
     inkscape:window-y="-8"
     inkscape:window-x="-8"
     inkscape:window-height="705"
     inkscape:window-width="1366"
     showgrid="false"
     inkscape:document-units="px"
     inkscape:cy="591.32344"
     inkscape:cx="1615.6983"
     inkscape:zoom="0.24748738"
     inkscape:pageshadow="2"
     inkscape:pageopacity="0.0"
     borderopacity="1.0"
     bordercolor="#666666"
     pagecolor="#ffffff"
     id="base"
     inkscape:current-layer="layer1" />
  <metadata
     id="metadata7">
    <rdf:RDF>
      <cc:Work
         rdf:about="">
        <dc:format>image/svg+xml</dc:format>
        <dc:type
           rdf:resource="http://purl.org/dc/dcmitype/StillImage" />
        <dc:title />
      </cc:Work>
    </rdf:RDF>
  </metadata>
  <g
     inkscape:label="Capa 1"
     inkscape:groupmode="layer"
     id="layer1">
    <path
       inkscape:connector-curvature="0"
       id="path5166"
       d="m 528.05251,451.92903 c -28.10721,0 -50.73633,22.6291 -50.73633,50.73632 l 0,121.75196 c 0,28.10722 22.62912,50.73437 50.73633,50.73437 l 136.875,0 c 28.10721,0 50.73438,-22.62715 50.73438,-50.73437 l 0,-121.75196 c 0,-28.10722 -22.62717,-50.73632 -50.73438,-50.73632 l -136.875,0 z m 66.91602,19.74023 c 1.96364,0 3.5427,1.32192 4.73633,3.96484 1.19357,2.64289 2.79082,7.62152 4.79296,14.93555 l 15.99805,57.71289 c 0.54788,1.98086 0.83187,2.9702 1.3418,4.8086 l 1.45898,4.02148 0.82422,1.37305 c 0.27463,0 0.57224,-0.49878 0.89258,-1.49805 l 18.12305,-53.39844 c 0.50342,-1.45725 0.75583,-2.64453 0.75586,-3.56054 0,-2.24834 -1.46546,-3.3711 -4.39454,-3.3711 -1.32722,0 -2.47053,-0.31294 -3.43164,-0.9375 -0.91534,-0.62456 -1.37304,-1.37373 -1.37304,-2.24804 0,-1.04094 0.50291,-1.85267 1.50976,-2.43555 1.00688,-0.62456 2.2425,-0.9375 3.70703,-0.9375 0.68652,0 1.9467,0.1669 3.77735,0.5 1.83067,0.29145 3.70668,0.4375 5.6289,0.4375 1.23568,0 3.13431,-0.14605 5.69727,-0.4375 2.6087,-0.3331 4.55448,-0.5 5.83594,-0.5 3.11215,0 4.66797,1.02034 4.66797,3.06055 0,1.08253 -0.50289,1.89427 -1.50977,2.43554 -0.96111,0.54128 -1.92369,0.8125 -2.88477,0.8125 -2.10527,0 -4.164,0.72826 -6.17773,2.18555 -1.96796,1.41561 -3.36367,3.33119 -4.1875,5.74609 -8.80205,27.00267 -16.50204,49.91847 -23.2168,69.19141 1.86889,6.60953 3.20827,11.23485 3.98633,13.75 1.54012,4.9785 2.79134,8.20459 3.75391,9.67969 1.00107,1.41362 2.17582,2.45864 3.52343,3.13476 1.38609,0.67608 2.32954,1.35323 2.83008,2.0293 0.50054,0.61465 0.75,1.69 0.75,3.22656 0,2.08975 -1.213,3.13477 -3.63867,3.13477 -0.80857,0 -2.29109,-0.18587 -4.44727,-0.55469 -2.11766,-0.36881 -4.23392,-0.55272 -6.35156,-0.55274 -2.11764,0 -4.3324,0.21625 -6.64258,0.64649 -2.27166,0.43025 -3.83068,0.64453 -4.67773,0.64453 -1.30911,0 -2.34908,-0.36792 -3.11914,-1.10547 -0.77005,-0.67608 -1.1543,-1.63012 -1.1543,-2.85937 0,-1.04486 0.23134,-1.90396 0.69336,-2.58008 0.46206,-0.67607 1.69319,-1.16926 3.69531,-1.47656 2.04066,-0.30714 3.35019,-0.98228 3.92774,-2.02735 0.61603,-1.10631 0.92383,-2.4586 0.92383,-4.05664 0,-1.62704 -1.01689,-6.04195 -2.97852,-13.05273 -0.10859,-0.27538 -0.21586,-0.54031 -0.32812,-0.85352 l -4.7793,-13.12695 c -0.58414,-0.22648 -1.38054,-0.34961 -2.42578,-0.34961 l -25.81641,0 c -1.00107,0 -1.90432,-0.49119 -2.71289,-1.47461 -0.80857,-1.04485 -1.21289,-2.24351 -1.21289,-3.5957 0,-1.04486 0.30777,-1.96661 0.92383,-2.76563 0.65453,-0.79901 1.38479,-1.19726 2.19336,-1.19726 l 24.83398,0 c 0.2952,0 0.54306,-0.0282 0.77539,-0.0645 l -13.74804,-37.75586 c -0.50343,-1.37397 -0.86883,-2.0625 -1.09766,-2.0625 -0.2287,0 -0.57344,0.68853 -1.03125,2.0625 l -19.49609,60.33008 c -0.53299,1.62784 -1.01502,2.69191 -1.45313,3.25391 l -2.29687,8.16211 c -0.30801,1.16778 -0.46289,2.18248 -0.46289,3.04297 0,0.92195 0.21319,1.75268 0.63671,2.49023 0.46203,0.73755 1.52017,1.47339 3.17579,2.21094 1.65564,0.73754 2.69562,1.47534 3.11914,2.21289 0.42352,0.73759 0.63476,1.56832 0.63476,2.49023 0,2.82729 -1.15466,4.24024 -3.46484,4.24024 -0.53902,0 -1.86866,-0.2769 -3.98633,-0.83008 -2.07913,-0.49167 -3.81115,-0.73633 -5.19727,-0.73633 -1.4246,0 -2.88705,0.24466 -4.38867,0.73633 -1.5016,0.49171 -2.59992,0.73828 -3.29297,0.73828 -0.96256,0 -1.75115,-0.43051 -2.36718,-1.29102 -0.61606,-0.79901 -0.92383,-1.7511 -0.92383,-2.85742 0,-1.59803 0.19311,-2.6431 0.57812,-3.13476 0.38504,-0.49172 1.09714,-0.86155 2.13672,-1.10742 3.0032,-0.79902 5.0631,-2.57989 6.17969,-5.34571 0.73833,-1.8072 2.28114,-6.84484 4.4668,-14.45312 -0.0106,-0.0289 -0.0166,-0.043 -0.0274,-0.0723 l -27.80273,-76.50586 c -0.86957,-2.28998 -1.87729,-3.9969 -3.02149,-5.12109 -1.09839,-1.1658 -2.65425,-1.89409 -4.66796,-2.18555 -2.01374,-0.29146 -3.31715,-0.62526 -3.91211,-1 -0.59497,-0.41634 -0.89258,-1.18639 -0.89258,-2.31054 0,-2.12346 1.62361,-3.18555 4.87304,-3.18555 1.0984,0 2.60903,0.18776 4.53125,0.5625 1.96796,0.33306 4.21136,0.5 6.72852,0.5 1.92222,0 4.00354,-0.1878 6.24609,-0.5625 2.24256,-0.41638 3.73061,-0.625 4.46289,-0.625 1.64759,0 3.02075,0.31294 4.11914,0.9375 1.0984,0.62455 1.64649,1.47798 1.64649,2.56055 0,1.99851 -1.60102,3.06062 -4.80469,3.18554 -2.47142,0.0833 -3.70703,0.83244 -3.70703,2.24805 0,0.66617 0.36537,1.91407 1.09766,3.74609 3.38672,8.20235 9.97739,26.1478 19.77148,53.83594 0.36611,0.95762 0.66372,1.4375 0.89258,1.4375 0.2287,0 0.48114,-0.43816 0.75586,-1.3125 l 2.89062,-8.80469 9.10743,-32.43945 c 3.42674,-11.92373 5.62139,-19.82118 6.58398,-23.69336 1.00107,-3.93361 1.50195,-6.97578 1.50195,-9.12695 0,-0.73755 -0.17299,-2.05951 -0.51953,-3.96485 -0.30802,-1.9668 -0.46289,-3.37975 -0.46289,-4.24023 0,-1.78244 0.59744,-2.67383 1.79102,-2.67383 z m -29.4375,146.42578 c 3.66132,0 7.23068,0.58222 10.70898,1.74805 3.47827,1.12415 5.2168,2.33229 5.2168,3.62305 0,0.79108 0.0923,1.76974 0.27539,2.93554 0.18308,1.16583 0.27344,2.10274 0.27344,2.81055 0,0.87437 -0.25049,1.64438 -0.75391,2.31055 -0.45765,0.6662 -1.05287,0.99804 -1.78516,0.99804 -1.05262,0 -1.80793,-0.22755 -2.26562,-0.68554 -0.41188,-0.49966 -0.80183,-1.35311 -1.16797,-2.56055 -0.36614,-1.20744 -0.9594,-2.16521 -1.7832,-2.87305 -0.8238,-0.7078 -1.92388,-1.35458 -3.29688,-1.9375 -1.37302,-0.58291 -2.90625,-0.87304 -4.59961,-0.87304 -1.69336,0 -3.31696,0.49878 -4.87304,1.49804 -1.51031,0.95766 -2.26563,1.99886 -2.26563,3.12305 0,0.95762 0.48029,1.93628 1.44141,2.93555 1.00688,0.99929 4.1657,2.76879 9.47461,5.30859 5.30894,2.53983 8.87831,5.03763 10.70898,7.49414 1.87645,2.41491 2.81445,4.97528 2.81445,7.68164 0,4.20526 -1.94576,7.5565 -5.83593,10.05469 -3.84442,2.49819 -8.83211,3.74805 -14.96485,3.74805 -3.38672,0 -6.7734,-0.68654 -10.16015,-2.06055 -3.34095,-1.33236 -5.01172,-2.68655 -5.01172,-4.06055 0,-1.12418 -0.0923,-2.49727 -0.27539,-4.12109 -0.18309,-1.66546 -0.27344,-2.99879 -0.27344,-3.99805 0,-2.04017 1.02839,-3.05859 3.08789,-3.05859 0.59497,0 1.14501,0.22755 1.64844,0.68554 0.50342,0.458 1.30391,1.99994 2.40234,4.62305 1.09839,2.58145 2.42638,4.35099 3.98242,5.30859 1.60185,0.95767 3.38556,1.43555 5.35352,1.43555 2.42565,0 4.48633,-0.72826 6.17969,-2.18555 1.69336,-1.45725 2.53906,-3.33108 2.53906,-5.62109 0,-1.49889 -0.57067,-2.89482 -1.71485,-4.18555 -1.14416,-1.33236 -4.28039,-3.10186 -9.40624,-5.30859 -5.08012,-2.20673 -8.39705,-4.34983 -9.95313,-6.43164 -1.51027,-2.12345 -2.26562,-4.41454 -2.26563,-6.87109 0,-3.24764 1.64623,-5.97494 4.94141,-8.18164 3.34098,-2.20673 7.20991,-3.3086 11.60352,-3.3086 z m 82.52929,2.06055 c 2.3341,0 3.5,0.72829 3.5,2.18555 0,1.08254 -0.18268,1.74823 -0.54882,1.99804 -0.32038,0.20835 -1.60119,0.54215 -3.84375,1 -2.19682,0.41635 -3.70745,0.81276 -4.53125,1.1875 -0.8238,0.3331 -1.6695,1.04051 -2.53907,2.12305 -0.82379,1.04091 -1.83155,2.68525 -3.02148,4.93359 l -14.75977,28.41602 c -0.0915,0.16656 -0.22902,0.47951 -0.41211,0.9375 -0.77802,1.83199 -1.71606,2.74805 -2.81445,2.74805 -0.96111,0 -1.9217,-0.91606 -2.88281,-2.74805 L 599.3865,631.52278 c -0.91534,-1.70707 -2.24135,-3.103 -3.98047,-4.18555 -1.6934,-1.12419 -3.27374,-1.68555 -4.73828,-1.68555 -1.60182,0 -2.83747,-0.25036 -3.70704,-0.75 -0.86956,-0.54127 -1.30273,-1.1861 -1.30273,-1.93554 0,-1.7071 1.1659,-2.56055 3.5,-2.56055 2.19679,0 4.37044,0.18776 6.52148,0.5625 2.15105,0.37471 3.82179,0.56055 5.01172,0.56055 1.41877,0 3.36456,-0.18584 5.83594,-0.56055 2.51719,-0.37474 4.37061,-0.5625 5.56055,-0.5625 1.64758,0 2.81348,0.20862 3.5,0.625 0.73225,0.37471 1.09961,1.01953 1.09961,1.93555 0,0.54127 -0.22985,1.01919 -0.6875,1.43554 -0.45769,0.41638 -1.50867,0.79193 -3.15625,1.125 -1.60186,0.3331 -2.60961,0.6669 -3.02149,1 -0.36614,0.3331 -0.54883,0.72756 -0.54883,1.18555 0,0.41635 0.45771,1.52017 1.37305,3.31055 l 9.4043,17.92382 c 0.50342,0.91599 0.93855,1.375 1.30469,1.375 0.50342,0 1.05347,-0.60506 1.64843,-1.8125 l 9.12891,-17.48632 c 0.50343,-0.87437 0.75586,-1.853 0.75586,-2.93555 0,-1.24908 -0.82311,-2.03995 -2.4707,-2.37305 -1.60185,-0.37474 -2.67737,-0.72943 -3.22657,-1.0625 -0.54919,-0.3331 -0.82422,-0.93618 -0.82422,-1.81054 0,-1.08255 0.29762,-1.76909 0.89258,-2.06055 0.59497,-0.33307 1.53298,-0.5 2.81446,-0.5 0.96108,0 2.15151,0.14607 3.57031,0.4375 1.41876,0.29146 3.13471,0.4375 5.14844,0.4375 1.92218,0 3.73043,-0.16693 5.42382,-0.5 1.73914,-0.3331 3.01995,-0.5 3.84375,-0.5 z"
       style="opacity:1;fill:#000000;fill-opacity:1;stroke:#000000;stroke-width:0.11068401;stroke-linecap:round;stroke-linejoin:round;stroke-miterlimit:4;stroke-dasharray:none;stroke-dashoffset:0;stroke-opacity:1;filter:url(#filter5280)"
       inkscape:export-filename="C:\Users\admin\Desktop\WebAppSV\Acabados Inkscape\Logo_WebAppSV_Relleno.png"
       inkscape:export-xdpi="100.4"
       inkscape:export-ydpi="100.4" />
    <path
       inkscape:connector-curvature="0"
       id="path5076"
       d="m 522.73176,158.99584 c -30.64658,0 -55.32031,24.67177 -55.32031,55.31836 l 0,132.7539 c 0,30.64658 24.67373,55.31836 55.32031,55.31836 l 149.24023,0 c 30.64659,0 55.31836,-24.67178 55.31836,-55.31836 l 0,-132.7539 c 0,-30.64659 -24.67177,-55.31836 -55.31836,-55.31836 l -149.24023,0 z m 6.18359,10.08398 136.875,0 c 28.10722,0 50.73438,22.62912 50.73438,50.73633 l 0,121.75195 c -2e-5,28.10721 -22.62716,50.73438 -50.73438,50.73438 l -136.875,0 c -28.10722,0 -50.73632,-22.62717 -50.73632,-50.73438 l 0,-121.75195 c 0,-28.10721 22.6291,-50.73633 50.73632,-50.73633 z m 66.91602,19.74023 c -1.19359,0 -1.78906,0.89141 -1.78906,2.67383 0,0.86047 0.15291,2.27344 0.46094,4.24024 0.34653,1.90534 0.51953,3.22728 0.51953,3.96484 0,2.15119 -0.50089,5.19334 -1.50196,9.12695 -0.96257,3.87214 -3.15723,11.76961 -6.58398,23.69336 l -9.10742,32.43946 -2.89063,8.80468 c -0.2746,0.87436 -0.52703,1.3125 -0.75586,1.3125 -0.22884,0 -0.52645,-0.47987 -0.89258,-1.4375 -9.79408,-27.68814 -16.38475,-45.63358 -19.77148,-53.83593 -0.73227,-1.832 -1.09766,-3.07992 -1.09766,-3.7461 0,-1.41564 1.23563,-2.16474 3.70704,-2.24804 3.20367,-0.12491 4.80468,-1.187 4.80468,-3.18555 0,-1.08254 -0.54808,-1.93601 -1.64648,-2.56055 -1.0984,-0.62455 -2.47154,-0.9375 -4.11914,-0.9375 -0.73226,0 -2.22032,0.20863 -4.46289,0.625 -2.24257,0.37472 -4.3239,0.5625 -6.2461,0.5625 -2.51717,0 -4.76054,-0.16691 -6.72851,-0.5 -1.9222,-0.37473 -3.43285,-0.5625 -4.53125,-0.5625 -3.24943,0 -4.87305,1.0621 -4.87305,3.18555 0,1.12418 0.29762,1.89419 0.89258,2.31055 0.59497,0.37473 1.89838,0.70855 3.91211,1 2.01374,0.29145 3.56957,1.01972 4.66797,2.18554 1.14417,1.12418 2.15191,2.8311 3.02148,5.1211 l 27.80274,76.50586 c 0.0108,0.0293 0.0167,0.0434 0.0273,0.0723 -2.18567,7.60828 -3.72846,12.64591 -4.4668,14.45313 -1.11658,2.76582 -3.17647,4.54863 -6.17968,5.34765 -1.03957,0.24585 -1.75169,0.61377 -2.13672,1.10547 -0.38503,0.4917 -0.57813,1.53674 -0.57813,3.13477 0,1.10633 0.30778,2.05841 0.92383,2.85742 0.61603,0.86048 1.40462,1.29101 2.36719,1.29101 0.69305,0 1.79136,-0.24658 3.29297,-0.73828 1.50161,-0.4917 2.96407,-0.73632 4.38867,-0.73632 1.3861,0 3.12007,0.24462 5.19922,0.73632 2.11765,0.55316 3.44533,0.83008 3.98437,0.83008 2.31016,0 3.46484,-1.41295 3.46484,-4.24023 10e-6,-0.92194 -0.21123,-1.75269 -0.63476,-2.49024 -0.42355,-0.73755 -1.46352,-1.47338 -3.11914,-2.21093 -1.65562,-0.73755 -2.71374,-1.47535 -3.17578,-2.2129 -0.42353,-0.73754 -0.63672,-1.5683 -0.63672,-2.49023 0,-0.86048 0.15487,-1.87518 0.46289,-3.04297 l 2.29687,-8.16211 c 0.43811,-0.562 0.92015,-1.62607 1.45313,-3.2539 l 19.49609,-60.33008 c 0.45767,-1.374 0.80242,-2.06055 1.03125,-2.06055 0.22883,0 0.59424,0.68655 1.09766,2.06055 l 13.74805,37.75586 c -0.23227,0.0363 -0.47834,0.0645 -0.77344,0.0645 l -24.83594,0 c -0.80856,1e-5 -1.53882,0.39826 -2.19336,1.19727 -0.61605,0.79901 -0.92383,1.72075 -0.92383,2.76562 0,1.35217 0.40433,2.55083 1.21289,3.5957 0.80856,0.9834 1.71182,1.47657 2.7129,1.47657 l 25.8164,0 c 1.04526,0 1.84163,0.12116 2.42578,0.34765 l 4.7793,13.12696 c 0.11407,0.3183 0.22368,0.58795 0.33398,0.86718 1.95889,7.00216 2.97266,11.41318 2.97266,13.03907 0,1.59803 -0.30779,2.95031 -0.92383,4.05664 -0.57754,1.04487 -1.88708,1.72003 -3.92773,2.02734 -2.00214,0.30733 -3.23328,0.80047 -3.69532,1.47656 -0.46202,0.67609 -0.69335,1.53521 -0.69335,2.58008 0,1.22925 0.38423,2.18329 1.15429,2.85938 0.77005,0.73755 1.81004,1.10546 3.11914,1.10546 0.84706,0 2.40608,-0.21429 4.67774,-0.64453 2.31017,-0.43024 4.52493,-0.64648 6.64258,-0.64648 2.11765,0 4.23391,0.18395 6.35156,0.55273 2.15616,0.36877 3.6387,0.55469 4.44726,0.55469 2.42567,0 3.63868,-1.04503 3.63868,-3.13476 0,-1.53657 -0.24946,-2.61195 -0.75,-3.22657 -0.50053,-0.67609 -1.44398,-1.3532 -2.83008,-2.02929 -1.34759,-0.67609 -2.52237,-1.72112 -3.52344,-3.13477 -0.96257,-1.47509 -2.2138,-4.70122 -3.75391,-9.67969 -0.77807,-2.51516 -2.11743,-7.14046 -3.98632,-13.75 6.71477,-19.27294 14.41473,-42.18874 23.21679,-69.1914 0.8238,-2.4149 2.21953,-4.33047 4.1875,-5.7461 2.01373,-1.45727 4.07247,-2.18554 6.17774,-2.18554 0.9611,0 1.92366,-0.27123 2.88476,-0.8125 1.00687,-0.54127 1.50977,-1.353 1.50977,-2.43555 0,-2.04017 -1.55585,-3.06055 -4.66797,-3.06055 -1.28147,0 -3.22724,0.16691 -5.83594,0.5 -2.56294,0.29145 -4.46156,0.4375 -5.69726,0.4375 -1.9222,0 -3.79825,-0.14605 -5.62891,-0.4375 -1.83067,-0.33309 -3.09084,-0.5 -3.77734,-0.5 -1.46453,0 -2.70016,0.31295 -3.70703,0.9375 -1.00688,0.58291 -1.50977,1.39465 -1.50977,2.43555 3e-5,0.87437 0.45772,1.62351 1.37305,2.24805 0.9611,0.62455 2.10635,0.9375 3.43359,0.9375 2.92907,0 4.39258,1.12273 4.39258,3.37109 0,0.916 -0.25242,2.10328 -0.75586,3.56055 l -18.12305,53.39843 c -0.32037,0.99927 -0.61798,1.5 -0.89258,1.5 l -0.82422,-1.375 -1.45898,-4.02148 c -0.50993,-1.8384 -0.79392,-2.82773 -1.3418,-4.80859 l -15.99804,-57.71289 c -2.00214,-7.31405 -3.59938,-12.29265 -4.79297,-14.93555 -1.19358,-2.64289 -2.77269,-3.96485 -4.73633,-3.96485 z m -29.4375,146.42579 c -4.39361,0 -8.26059,1.10381 -11.60156,3.31054 -3.2952,2.20672 -4.94336,4.93206 -4.94336,8.17969 0,2.45655 0.75532,4.74764 2.26562,6.87109 1.55607,2.08181 4.87303,4.22688 9.95313,6.4336 5.12588,2.20673 8.26209,3.97622 9.40625,5.30859 1.14417,1.29072 1.71484,2.68469 1.71484,4.1836 0,2.29 -0.8457,4.16382 -2.53906,5.62109 -1.69337,1.45727 -3.7521,2.18555 -6.17774,2.18555 -1.96797,0 -3.75362,-0.47791 -5.35546,-1.43555 -1.55607,-0.95763 -2.88403,-2.72714 -3.98243,-5.30859 -1.0984,-2.62309 -1.89891,-4.16505 -2.40234,-4.62305 -0.50344,-0.458 -1.05151,-0.68555 -1.64648,-0.68555 -2.0595,0 -3.08985,1.01842 -3.08985,3.0586 0,0.99927 0.0904,2.33258 0.27344,3.99804 0.18309,1.62381 0.27539,2.99692 0.27539,4.1211 0,1.374 1.67076,2.72818 5.01172,4.06054 3.38674,1.374 6.77342,2.06055 10.16016,2.06055 6.13274,0 11.12044,-1.24987 14.96484,-3.74805 3.89018,-2.49818 5.83594,-5.84941 5.83594,-10.05468 0,-2.70636 -0.93803,-5.26675 -2.81446,-7.68164 -1.83067,-2.45654 -5.40004,-4.95434 -10.70898,-7.49415 -5.30893,-2.53982 -8.46775,-4.30931 -9.47461,-5.30859 -0.96111,-0.99927 -1.44141,-1.97792 -1.44141,-2.93555 0,-1.12418 0.75533,-2.1654 2.26563,-3.12304 1.55607,-0.99927 3.18164,-1.49805 4.875,-1.49805 1.69337,0 3.22466,0.29014 4.59766,0.87305 1.373,0.58291 2.47306,1.22968 3.29687,1.9375 0.8238,0.70782 1.41903,1.66559 1.78516,2.87304 0.36614,1.20745 0.75411,2.06092 1.16601,2.56055 0.45766,0.458 1.213,0.68555 2.26563,0.68555 0.73227,0 1.32748,-0.33186 1.78515,-0.99805 0.50343,-0.66618 0.75391,-1.43619 0.75391,-2.31055 0,-0.70782 -0.0904,-1.64472 -0.27344,-2.81054 -0.18309,-1.16582 -0.27539,-2.14446 -0.27539,-2.93555 0,-1.29072 -1.73853,-2.49887 -5.2168,-3.62305 -3.47827,-1.16582 -7.04765,-1.74804 -10.70898,-1.74804 z m 82.5293,2.06054 c -0.8238,0 -2.10461,0.16691 -3.84375,0.5 -1.69337,0.33309 -3.50162,0.5 -5.42383,0.5 -2.01373,0 -3.72968,-0.14605 -5.14844,-0.4375 -1.41877,-0.29146 -2.6092,-0.4375 -3.57031,-0.4375 -1.28146,0 -2.21948,0.16691 -2.81445,0.5 -0.59497,0.29145 -0.89258,0.97801 -0.89258,2.06055 0,0.87437 0.27502,1.47746 0.82422,1.81055 0.5492,0.33309 1.62473,0.68777 3.22656,1.0625 1.64761,0.33309 2.4707,1.12395 2.4707,2.37304 0,1.08254 -0.25243,2.06119 -0.75586,2.93555 l -9.1289,17.48633 c -0.59497,1.20746 -1.145,1.8125 -1.64844,1.8125 -0.36613,0 -0.80126,-0.459 -1.30469,-1.375 l -9.4043,-17.92383 c -0.91533,-1.79036 -1.37304,-2.89419 -1.37304,-3.31055 0,-0.458 0.1827,-0.85245 0.54883,-1.18554 0.4119,-0.33309 1.41964,-0.66691 3.02148,-1 1.6476,-0.33309 2.69858,-0.70864 3.15625,-1.125 0.45766,-0.41636 0.6875,-0.89427 0.6875,-1.43555 0,-0.91599 -0.36539,-1.56083 -1.09766,-1.93555 -0.6865,-0.41637 -1.85435,-0.625 -3.50195,-0.625 -1.18994,0 -3.04338,0.18777 -5.56055,0.5625 -2.4714,0.37472 -4.41716,0.56055 -5.83593,0.56055 -1.18993,0 -2.86068,-0.18583 -5.01172,-0.56055 -2.15103,-0.37473 -4.32469,-0.5625 -6.52149,-0.5625 -2.3341,0 -3.5,0.85347 -3.5,2.56055 0,0.74946 0.43512,1.39428 1.30469,1.93555 0.86956,0.49964 2.10519,0.75 3.70703,0.75 1.46453,0 3.04296,0.56136 4.73633,1.68554 1.73913,1.08254 3.06514,2.47847 3.98047,4.18555 l 16.82031,31.41406 c 0.9611,1.83199 1.92171,2.74805 2.88281,2.74805 1.0984,0 2.03643,-0.91606 2.81446,-2.74805 0.18307,-0.458 0.32061,-0.77096 0.41211,-0.9375 l 14.75976,-28.41601 c 1.18993,-2.24836 2.19769,-3.89269 3.02149,-4.9336 0.86957,-1.08255 1.71526,-1.78995 2.53906,-2.12304 0.82381,-0.37473 2.33445,-0.77114 4.53125,-1.1875 2.24257,-0.458 3.52339,-0.79182 3.84375,-1 0.36614,-0.24982 0.55078,-0.9155 0.55078,-1.99805 0,-1.45727 -1.16785,-2.18555 -3.50195,-2.18555 z"
       style="opacity:1;fill:#000000;fill-opacity:1;stroke:#000000;stroke-width:0.11068401;stroke-linecap:round;stroke-linejoin:round;stroke-miterlimit:4;stroke-dasharray:none;stroke-dashoffset:0;stroke-opacity:1;filter:url(#filter5110)"
       inkscape:export-filename="C:\Users\admin\Desktop\WebAppSV\Acabados Inkscape\Logo_WebAppSV_Contorno.png"
       inkscape:export-xdpi="100.4"
       inkscape:export-ydpi="100.4" />
    <rect
       style="opacity:1;fill:#000000;fill-opacity:1;stroke:#000000;stroke-width:0.11068401;stroke-linecap:round;stroke-linejoin:round;stroke-miterlimit:4;stroke-dasharray:none;stroke-dashoffset:0;stroke-opacity:1"
       id="rect4136"
       width="238.34537"
       height="223.22282"
       x="30.640995"
       y="79.111511"
       ry="50.735046" />
    <flowRoot
       transform="matrix(4.6865112,0,0,4.2635572,-446.64359,-1378.6991)"
       style="font-style:normal;font-weight:normal;font-size:30px;line-height:125%;font-family:sans-serif;letter-spacing:15.77999973px;word-spacing:0px;fill:#d45500;fill-opacity:1;stroke:none;stroke-width:1px;stroke-linecap:butt;stroke-linejoin:miter;stroke-opacity:1"
       id="flowRoot4154"
       xml:space="preserve"><flowRegion
         id="flowRegion4156"><rect
           y="361.41788"
           x="116.16754"
           height="80.812202"
           width="226.27417"
           id="rect4158"
           style="fill:#d45500;fill-opacity:1" /></flowRegion><flowPara
         style="font-style:normal;font-variant:normal;font-weight:normal;font-stretch:normal;line-height:124.00000095%;font-family:'Poor Richard';-inkscape-font-specification:'Poor Richard';letter-spacing:0.00264746px;fill:#d45500;fill-opacity:1"
         id="flowPara4160">sv</flowPara></flowRoot>    <g
       id="g4170"
       transform="translate(-15.972985,-188.89853)"
       style="fill:#d45500;fill-opacity:1">
      <flowRoot
         transform="matrix(4.6865112,0,0,4.2635572,-446.29045,-1273.0163)"
         style="font-style:normal;font-weight:normal;font-size:30px;line-height:125%;font-family:sans-serif;letter-spacing:15.77999973px;word-spacing:0px;fill:#d45500;fill-opacity:1;stroke:none;stroke-width:1px;stroke-linecap:butt;stroke-linejoin:miter;stroke-opacity:1"
         id="flowRoot4138"
         xml:space="preserve"><flowRegion
           id="flowRegion4140"><rect
             style="fill:#d45500;fill-opacity:1"
             y="361.41788"
             x="116.16754"
             height="80.812202"
             width="226.27417"
             id="rect4142" /></flowRegion><flowPara
           style="font-style:normal;font-variant:normal;font-weight:normal;font-stretch:normal;line-height:124.00000095%;font-family:'Poor Richard';-inkscape-font-specification:'Poor Richard';letter-spacing:0.00264746px;fill:#d45500;fill-opacity:1"
           id="flowPara4144">W</flowPara></flowRoot>      <flowRoot
         xml:space="preserve"
         id="flowRoot4162"
         style="font-style:normal;font-weight:normal;font-size:30px;line-height:125%;font-family:sans-serif;letter-spacing:15.77999973px;word-spacing:0px;fill:#d45500;fill-opacity:1;stroke:none;stroke-width:1px;stroke-linecap:butt;stroke-linejoin:miter;stroke-opacity:1"
         transform="matrix(3.9426845,0,0,6.2937736,-333.13614,-2040.8446)"><flowRegion
           id="flowRegion4164"><rect
             style="fill:#d45500;fill-opacity:1"
             id="rect4166"
             width="226.27417"
             height="80.812202"
             x="116.16754"
             y="361.41788" /></flowRegion><flowPara
           id="flowPara4168"
           style="font-style:normal;font-variant:normal;font-weight:normal;font-stretch:normal;line-height:124.00000095%;font-family:'Poor Richard';-inkscape-font-specification:'Poor Richard';letter-spacing:0.00264746px;fill:#d45500;fill-opacity:1">A</flowPara></flowRoot>    </g>
    <path
       style="opacity:1;fill:#0066ff;fill-opacity:1;stroke:#000000;stroke-width:0.11068401;stroke-linecap:round;stroke-linejoin:round;stroke-miterlimit:4;stroke-dasharray:none;stroke-dashoffset:0;stroke-opacity:1"
       d="m 520.73176,160.99584 c -30.64658,0 -55.32031,24.67177 -55.32031,55.31836 l 0,132.7539 c 0,30.64658 24.67373,55.31836 55.32031,55.31836 l 149.24023,0 c 30.64659,0 55.31836,-24.67178 55.31836,-55.31836 l 0,-132.7539 c 0,-30.64659 -24.67177,-55.31836 -55.31836,-55.31836 l -149.24023,0 z m 6.18359,10.08398 136.875,0 c 28.10722,0 50.73438,22.62912 50.73438,50.73633 l 0,121.75195 c -2e-5,28.10721 -22.62716,50.73438 -50.73438,50.73438 l -136.875,0 c -28.10722,0 -50.73632,-22.62717 -50.73632,-50.73438 l 0,-121.75195 c 0,-28.10721 22.6291,-50.73633 50.73632,-50.73633 z m 66.91602,19.74023 c -1.19359,0 -1.78906,0.89141 -1.78906,2.67383 0,0.86047 0.15291,2.27344 0.46094,4.24024 0.34653,1.90534 0.51953,3.22728 0.51953,3.96484 0,2.15119 -0.50089,5.19334 -1.50196,9.12695 -0.96257,3.87214 -3.15723,11.76961 -6.58398,23.69336 l -9.10742,32.43946 -2.89063,8.80468 c -0.2746,0.87436 -0.52703,1.3125 -0.75586,1.3125 -0.22884,0 -0.52645,-0.47987 -0.89258,-1.4375 -9.79408,-27.68814 -16.38475,-45.63358 -19.77148,-53.83593 -0.73227,-1.832 -1.09766,-3.07992 -1.09766,-3.7461 0,-1.41564 1.23563,-2.16474 3.70704,-2.24804 3.20367,-0.12491 4.80468,-1.187 4.80468,-3.18555 0,-1.08254 -0.54808,-1.93601 -1.64648,-2.56055 -1.0984,-0.62455 -2.47154,-0.9375 -4.11914,-0.9375 -0.73226,0 -2.22032,0.20863 -4.46289,0.625 -2.24257,0.37472 -4.3239,0.5625 -6.2461,0.5625 -2.51717,0 -4.76054,-0.16691 -6.72851,-0.5 -1.9222,-0.37473 -3.43285,-0.5625 -4.53125,-0.5625 -3.24943,0 -4.87305,1.0621 -4.87305,3.18555 0,1.12418 0.29762,1.89419 0.89258,2.31055 0.59497,0.37473 1.89838,0.70855 3.91211,1 2.01374,0.29145 3.56957,1.01972 4.66797,2.18554 1.14417,1.12418 2.15191,2.8311 3.02148,5.1211 l 27.80274,76.50586 c 0.0108,0.0293 0.0167,0.0434 0.0273,0.0723 -2.18567,7.60828 -3.72846,12.64591 -4.4668,14.45313 -1.11658,2.76582 -3.17647,4.54863 -6.17968,5.34765 -1.03957,0.24585 -1.75169,0.61377 -2.13672,1.10547 -0.38503,0.4917 -0.57813,1.53674 -0.57813,3.13477 0,1.10633 0.30778,2.05841 0.92383,2.85742 0.61603,0.86048 1.40462,1.29101 2.36719,1.29101 0.69305,0 1.79136,-0.24658 3.29297,-0.73828 1.50161,-0.4917 2.96407,-0.73632 4.38867,-0.73632 1.3861,0 3.12007,0.24462 5.19922,0.73632 2.11765,0.55316 3.44533,0.83008 3.98437,0.83008 2.31016,0 3.46484,-1.41295 3.46484,-4.24023 10e-6,-0.92194 -0.21123,-1.75269 -0.63476,-2.49024 -0.42355,-0.73755 -1.46352,-1.47338 -3.11914,-2.21093 -1.65562,-0.73755 -2.71374,-1.47535 -3.17578,-2.2129 -0.42353,-0.73754 -0.63672,-1.5683 -0.63672,-2.49023 0,-0.86048 0.15487,-1.87518 0.46289,-3.04297 l 2.29687,-8.16211 c 0.43811,-0.562 0.92015,-1.62607 1.45313,-3.2539 l 19.49609,-60.33008 c 0.45767,-1.374 0.80242,-2.06055 1.03125,-2.06055 0.22883,0 0.59424,0.68655 1.09766,2.06055 l 13.74805,37.75586 c -0.23227,0.0363 -0.47834,0.0645 -0.77344,0.0645 l -24.83594,0 c -0.80856,1e-5 -1.53882,0.39826 -2.19336,1.19727 -0.61605,0.79901 -0.92383,1.72075 -0.92383,2.76562 0,1.35217 0.40433,2.55083 1.21289,3.5957 0.80856,0.9834 1.71182,1.47657 2.7129,1.47657 l 25.8164,0 c 1.04526,0 1.84163,0.12116 2.42578,0.34765 l 4.7793,13.12696 c 0.11407,0.3183 0.22368,0.58795 0.33398,0.86718 1.95889,7.00216 2.97266,11.41318 2.97266,13.03907 0,1.59803 -0.30779,2.95031 -0.92383,4.05664 -0.57754,1.04487 -1.88708,1.72003 -3.92773,2.02734 -2.00214,0.30733 -3.23328,0.80047 -3.69532,1.47656 -0.46202,0.67609 -0.69335,1.53521 -0.69335,2.58008 0,1.22925 0.38423,2.18329 1.15429,2.85938 0.77005,0.73755 1.81004,1.10546 3.11914,1.10546 0.84706,0 2.40608,-0.21429 4.67774,-0.64453 2.31017,-0.43024 4.52493,-0.64648 6.64258,-0.64648 2.11765,0 4.23391,0.18395 6.35156,0.55273 2.15616,0.36877 3.6387,0.55469 4.44726,0.55469 2.42567,0 3.63868,-1.04503 3.63868,-3.13476 0,-1.53657 -0.24946,-2.61195 -0.75,-3.22657 -0.50053,-0.67609 -1.44398,-1.3532 -2.83008,-2.02929 -1.34759,-0.67609 -2.52237,-1.72112 -3.52344,-3.13477 -0.96257,-1.47509 -2.2138,-4.70122 -3.75391,-9.67969 -0.77807,-2.51516 -2.11743,-7.14046 -3.98632,-13.75 6.71477,-19.27294 14.41473,-42.18874 23.21679,-69.1914 0.8238,-2.4149 2.21953,-4.33047 4.1875,-5.7461 2.01373,-1.45727 4.07247,-2.18554 6.17774,-2.18554 0.9611,0 1.92366,-0.27123 2.88476,-0.8125 1.00687,-0.54127 1.50977,-1.353 1.50977,-2.43555 0,-2.04017 -1.55585,-3.06055 -4.66797,-3.06055 -1.28147,0 -3.22724,0.16691 -5.83594,0.5 -2.56294,0.29145 -4.46156,0.4375 -5.69726,0.4375 -1.9222,0 -3.79825,-0.14605 -5.62891,-0.4375 -1.83067,-0.33309 -3.09084,-0.5 -3.77734,-0.5 -1.46453,0 -2.70016,0.31295 -3.70703,0.9375 -1.00688,0.58291 -1.50977,1.39465 -1.50977,2.43555 3e-5,0.87437 0.45772,1.62351 1.37305,2.24805 0.9611,0.62455 2.10635,0.9375 3.43359,0.9375 2.92907,0 4.39258,1.12273 4.39258,3.37109 0,0.916 -0.25242,2.10328 -0.75586,3.56055 l -18.12305,53.39843 c -0.32037,0.99927 -0.61798,1.5 -0.89258,1.5 l -0.82422,-1.375 -1.45898,-4.02148 c -0.50993,-1.8384 -0.79392,-2.82773 -1.3418,-4.80859 l -15.99804,-57.71289 c -2.00214,-7.31405 -3.59938,-12.29265 -4.79297,-14.93555 -1.19358,-2.64289 -2.77269,-3.96485 -4.73633,-3.96485 z m -29.4375,146.42579 c -4.39361,0 -8.26059,1.10381 -11.60156,3.31054 -3.2952,2.20672 -4.94336,4.93206 -4.94336,8.17969 0,2.45655 0.75532,4.74764 2.26562,6.87109 1.55607,2.08181 4.87303,4.22688 9.95313,6.4336 5.12588,2.20673 8.26209,3.97622 9.40625,5.30859 1.14417,1.29072 1.71484,2.68469 1.71484,4.1836 0,2.29 -0.8457,4.16382 -2.53906,5.62109 -1.69337,1.45727 -3.7521,2.18555 -6.17774,2.18555 -1.96797,0 -3.75362,-0.47791 -5.35546,-1.43555 -1.55607,-0.95763 -2.88403,-2.72714 -3.98243,-5.30859 -1.0984,-2.62309 -1.89891,-4.16505 -2.40234,-4.62305 -0.50344,-0.458 -1.05151,-0.68555 -1.64648,-0.68555 -2.0595,0 -3.08985,1.01842 -3.08985,3.0586 0,0.99927 0.0904,2.33258 0.27344,3.99804 0.18309,1.62381 0.27539,2.99692 0.27539,4.1211 0,1.374 1.67076,2.72818 5.01172,4.06054 3.38674,1.374 6.77342,2.06055 10.16016,2.06055 6.13274,0 11.12044,-1.24987 14.96484,-3.74805 3.89018,-2.49818 5.83594,-5.84941 5.83594,-10.05468 0,-2.70636 -0.93803,-5.26675 -2.81446,-7.68164 -1.83067,-2.45654 -5.40004,-4.95434 -10.70898,-7.49415 -5.30893,-2.53982 -8.46775,-4.30931 -9.47461,-5.30859 -0.96111,-0.99927 -1.44141,-1.97792 -1.44141,-2.93555 0,-1.12418 0.75533,-2.1654 2.26563,-3.12304 1.55607,-0.99927 3.18164,-1.49805 4.875,-1.49805 1.69337,0 3.22466,0.29014 4.59766,0.87305 1.373,0.58291 2.47306,1.22968 3.29687,1.9375 0.8238,0.70782 1.41903,1.66559 1.78516,2.87304 0.36614,1.20745 0.75411,2.06092 1.16601,2.56055 0.45766,0.458 1.213,0.68555 2.26563,0.68555 0.73227,0 1.32748,-0.33186 1.78515,-0.99805 0.50343,-0.66618 0.75391,-1.43619 0.75391,-2.31055 0,-0.70782 -0.0904,-1.64472 -0.27344,-2.81054 -0.18309,-1.16582 -0.27539,-2.14446 -0.27539,-2.93555 0,-1.29072 -1.73853,-2.49887 -5.2168,-3.62305 -3.47827,-1.16582 -7.04765,-1.74804 -10.70898,-1.74804 z m 82.5293,2.06054 c -0.8238,0 -2.10461,0.16691 -3.84375,0.5 -1.69337,0.33309 -3.50162,0.5 -5.42383,0.5 -2.01373,0 -3.72968,-0.14605 -5.14844,-0.4375 -1.41877,-0.29146 -2.6092,-0.4375 -3.57031,-0.4375 -1.28146,0 -2.21948,0.16691 -2.81445,0.5 -0.59497,0.29145 -0.89258,0.97801 -0.89258,2.06055 0,0.87437 0.27502,1.47746 0.82422,1.81055 0.5492,0.33309 1.62473,0.68777 3.22656,1.0625 1.64761,0.33309 2.4707,1.12395 2.4707,2.37304 0,1.08254 -0.25243,2.06119 -0.75586,2.93555 l -9.1289,17.48633 c -0.59497,1.20746 -1.145,1.8125 -1.64844,1.8125 -0.36613,0 -0.80126,-0.459 -1.30469,-1.375 l -9.4043,-17.92383 c -0.91533,-1.79036 -1.37304,-2.89419 -1.37304,-3.31055 0,-0.458 0.1827,-0.85245 0.54883,-1.18554 0.4119,-0.33309 1.41964,-0.66691 3.02148,-1 1.6476,-0.33309 2.69858,-0.70864 3.15625,-1.125 0.45766,-0.41636 0.6875,-0.89427 0.6875,-1.43555 0,-0.91599 -0.36539,-1.56083 -1.09766,-1.93555 -0.6865,-0.41637 -1.85435,-0.625 -3.50195,-0.625 -1.18994,0 -3.04338,0.18777 -5.56055,0.5625 -2.4714,0.37472 -4.41716,0.56055 -5.83593,0.56055 -1.18993,0 -2.86068,-0.18583 -5.01172,-0.56055 -2.15103,-0.37473 -4.32469,-0.5625 -6.52149,-0.5625 -2.3341,0 -3.5,0.85347 -3.5,2.56055 0,0.74946 0.43512,1.39428 1.30469,1.93555 0.86956,0.49964 2.10519,0.75 3.70703,0.75 1.46453,0 3.04296,0.56136 4.73633,1.68554 1.73913,1.08254 3.06514,2.47847 3.98047,4.18555 l 16.82031,31.41406 c 0.9611,1.83199 1.92171,2.74805 2.88281,2.74805 1.0984,0 2.03643,-0.91606 2.81446,-2.74805 0.18307,-0.458 0.32061,-0.77096 0.41211,-0.9375 l 14.75976,-28.41601 c 1.18993,-2.24836 2.19769,-3.89269 3.02149,-4.9336 0.86957,-1.08255 1.71526,-1.78995 2.53906,-2.12304 0.82381,-0.37473 2.33445,-0.77114 4.53125,-1.1875 2.24257,-0.458 3.52339,-0.79182 3.84375,-1 0.36614,-0.24982 0.55078,-0.9155 0.55078,-1.99805 0,-1.45727 -1.16785,-2.18555 -3.50195,-2.18555 z"
       id="rect4576"
       inkscape:connector-curvature="0"
       inkscape:export-filename="C:\Users\admin\Desktop\WebAppSV\Acabados Inkscape\Logo_WebAppSV_Contorno.png"
       inkscape:export-xdpi="100.4"
       inkscape:export-ydpi="100.4" />
    <rect
       ry="50.735046"
       y="426.60397"
       x="26.600386"
       height="223.22282"
       width="238.34537"
       id="rect4604"
       style="opacity:1;fill:#784421;fill-opacity:1;stroke:#000000;stroke-width:0.11068401;stroke-linecap:round;stroke-linejoin:round;stroke-miterlimit:4;stroke-dasharray:none;stroke-dashoffset:0;stroke-opacity:1" />
    <flowRoot
       xml:space="preserve"
       id="flowRoot4606"
       style="font-style:normal;font-weight:normal;font-size:30px;line-height:125%;font-family:sans-serif;letter-spacing:15.77999973px;word-spacing:0px;fill:#668000;fill-opacity:1;stroke:none;stroke-width:1px;stroke-linecap:butt;stroke-linejoin:miter;stroke-opacity:1;"
       transform="matrix(4.6865112,0,0,4.2635572,-450.6842,-1031.2066)"><flowRegion
         id="flowRegion4608"><rect
           style="fill:#668000;fill-opacity:1;"
           id="rect4610"
           width="226.27417"
           height="80.812202"
           x="116.16754"
           y="361.41788" /></flowRegion><flowPara
         id="flowPara4612"
         style="font-style:normal;font-variant:normal;font-weight:normal;font-stretch:normal;line-height:124.00000095%;font-family:'Poor Richard';-inkscape-font-specification:'Poor Richard';letter-spacing:0.00264746px;fill:#668000;fill-opacity:1;">sv</flowPara></flowRoot>    <g
       style="fill:#668000;fill-opacity:1"
       transform="translate(-20.013595,158.59395)"
       id="g4614">
      <flowRoot
         xml:space="preserve"
         id="flowRoot4616"
         style="font-style:normal;font-weight:normal;font-size:30px;line-height:125%;font-family:sans-serif;letter-spacing:15.77999973px;word-spacing:0px;fill:#668000;fill-opacity:1;stroke:none;stroke-width:1px;stroke-linecap:butt;stroke-linejoin:miter;stroke-opacity:1"
         transform="matrix(4.6865112,0,0,4.2635572,-446.29045,-1273.0163)"><flowRegion
           id="flowRegion4618"><rect
             id="rect4620"
             width="226.27417"
             height="80.812202"
             x="116.16754"
             y="361.41788"
             style="fill:#668000;fill-opacity:1" /></flowRegion><flowPara
           id="flowPara4622"
           style="font-style:normal;font-variant:normal;font-weight:normal;font-stretch:normal;line-height:124.00000095%;font-family:'Poor Richard';-inkscape-font-specification:'Poor Richard';letter-spacing:0.00264746px;fill:#668000;fill-opacity:1">W</flowPara></flowRoot>      <flowRoot
         transform="matrix(3.9426845,0,0,6.2937736,-333.13614,-2040.8446)"
         style="font-style:normal;font-weight:normal;font-size:30px;line-height:125%;font-family:sans-serif;letter-spacing:15.77999973px;word-spacing:0px;fill:#668000;fill-opacity:1;stroke:none;stroke-width:1px;stroke-linecap:butt;stroke-linejoin:miter;stroke-opacity:1"
         id="flowRoot4624"
         xml:space="preserve"><flowRegion
           id="flowRegion4626"><rect
             y="361.41788"
             x="116.16754"
             height="80.812202"
             width="226.27417"
             id="rect4628"
             style="fill:#668000;fill-opacity:1" /></flowRegion><flowPara
           style="font-style:normal;font-variant:normal;font-weight:normal;font-stretch:normal;line-height:124.00000095%;font-family:'Poor Richard';-inkscape-font-specification:'Poor Richard';letter-spacing:0.00264746px;fill:#668000;fill-opacity:1"
           id="flowPara4630">A</flowPara></flowRoot>    </g>
    <path
       style="opacity:1;fill:#0066ff;fill-opacity:1;stroke:#000000;stroke-width:0.11068401;stroke-linecap:round;stroke-linejoin:round;stroke-miterlimit:4;stroke-dasharray:none;stroke-dashoffset:0;stroke-opacity:1"
       d="m 526.05251,449.92903 c -28.10721,0 -50.73633,22.6291 -50.73633,50.73632 l 0,121.75196 c 0,28.10722 22.62912,50.73437 50.73633,50.73437 l 136.875,0 c 28.10721,0 50.73438,-22.62715 50.73438,-50.73437 l 0,-121.75196 c 0,-28.10722 -22.62717,-50.73632 -50.73438,-50.73632 l -136.875,0 z m 66.91602,19.74023 c 1.96364,0 3.5427,1.32192 4.73633,3.96484 1.19357,2.64289 2.79082,7.62152 4.79296,14.93555 l 15.99805,57.71289 c 0.54788,1.98086 0.83187,2.9702 1.3418,4.8086 l 1.45898,4.02148 0.82422,1.37305 c 0.27463,0 0.57224,-0.49878 0.89258,-1.49805 l 18.12305,-53.39844 c 0.50342,-1.45725 0.75583,-2.64453 0.75586,-3.56054 0,-2.24834 -1.46546,-3.3711 -4.39454,-3.3711 -1.32722,0 -2.47053,-0.31294 -3.43164,-0.9375 -0.91534,-0.62456 -1.37304,-1.37373 -1.37304,-2.24804 0,-1.04094 0.50291,-1.85267 1.50976,-2.43555 1.00688,-0.62456 2.2425,-0.9375 3.70703,-0.9375 0.68652,0 1.9467,0.1669 3.77735,0.5 1.83067,0.29145 3.70668,0.4375 5.6289,0.4375 1.23568,0 3.13431,-0.14605 5.69727,-0.4375 2.6087,-0.3331 4.55448,-0.5 5.83594,-0.5 3.11215,0 4.66797,1.02034 4.66797,3.06055 0,1.08253 -0.50289,1.89427 -1.50977,2.43554 -0.96111,0.54128 -1.92369,0.8125 -2.88477,0.8125 -2.10527,0 -4.164,0.72826 -6.17773,2.18555 -1.96796,1.41561 -3.36367,3.33119 -4.1875,5.74609 -8.80205,27.00267 -16.50204,49.91847 -23.2168,69.19141 1.86889,6.60953 3.20827,11.23485 3.98633,13.75 1.54012,4.9785 2.79134,8.20459 3.75391,9.67969 1.00107,1.41362 2.17582,2.45864 3.52343,3.13476 1.38609,0.67608 2.32954,1.35323 2.83008,2.0293 0.50054,0.61465 0.75,1.69 0.75,3.22656 0,2.08975 -1.213,3.13477 -3.63867,3.13477 -0.80857,0 -2.29109,-0.18587 -4.44727,-0.55469 -2.11766,-0.36881 -4.23392,-0.55272 -6.35156,-0.55274 -2.11764,0 -4.3324,0.21625 -6.64258,0.64649 -2.27166,0.43025 -3.83068,0.64453 -4.67773,0.64453 -1.30911,0 -2.34908,-0.36792 -3.11914,-1.10547 -0.77005,-0.67608 -1.1543,-1.63012 -1.1543,-2.85937 0,-1.04486 0.23134,-1.90396 0.69336,-2.58008 0.46206,-0.67607 1.69319,-1.16926 3.69531,-1.47656 2.04066,-0.30714 3.35019,-0.98228 3.92774,-2.02735 0.61603,-1.10631 0.92383,-2.4586 0.92383,-4.05664 0,-1.62704 -1.01689,-6.04195 -2.97852,-13.05273 -0.10859,-0.27538 -0.21586,-0.54031 -0.32812,-0.85352 l -4.7793,-13.12695 c -0.58414,-0.22648 -1.38054,-0.34961 -2.42578,-0.34961 l -25.81641,0 c -1.00107,0 -1.90432,-0.49119 -2.71289,-1.47461 -0.80857,-1.04485 -1.21289,-2.24351 -1.21289,-3.5957 0,-1.04486 0.30777,-1.96661 0.92383,-2.76563 0.65453,-0.79901 1.38479,-1.19726 2.19336,-1.19726 l 24.83398,0 c 0.2952,0 0.54306,-0.0282 0.77539,-0.0645 l -13.74804,-37.75586 c -0.50343,-1.37397 -0.86883,-2.0625 -1.09766,-2.0625 -0.2287,0 -0.57344,0.68853 -1.03125,2.0625 l -19.49609,60.33008 c -0.53299,1.62784 -1.01502,2.69191 -1.45313,3.25391 l -2.29687,8.16211 c -0.30801,1.16778 -0.46289,2.18248 -0.46289,3.04297 0,0.92195 0.21319,1.75268 0.63671,2.49023 0.46203,0.73755 1.52017,1.47339 3.17579,2.21094 1.65564,0.73754 2.69562,1.47534 3.11914,2.21289 0.42352,0.73759 0.63476,1.56832 0.63476,2.49023 0,2.82729 -1.15466,4.24024 -3.46484,4.24024 -0.53902,0 -1.86866,-0.2769 -3.98633,-0.83008 -2.07913,-0.49167 -3.81115,-0.73633 -5.19727,-0.73633 -1.4246,0 -2.88705,0.24466 -4.38867,0.73633 -1.5016,0.49171 -2.59992,0.73828 -3.29297,0.73828 -0.96256,0 -1.75115,-0.43051 -2.36718,-1.29102 -0.61606,-0.79901 -0.92383,-1.7511 -0.92383,-2.85742 0,-1.59803 0.19311,-2.6431 0.57812,-3.13476 0.38504,-0.49172 1.09714,-0.86155 2.13672,-1.10742 3.0032,-0.79902 5.0631,-2.57989 6.17969,-5.34571 0.73833,-1.8072 2.28114,-6.84484 4.4668,-14.45312 -0.0106,-0.0289 -0.0166,-0.043 -0.0274,-0.0723 l -27.80273,-76.50586 c -0.86957,-2.28998 -1.87729,-3.9969 -3.02149,-5.12109 -1.09839,-1.1658 -2.65425,-1.89409 -4.66796,-2.18555 -2.01374,-0.29146 -3.31715,-0.62526 -3.91211,-1 -0.59497,-0.41634 -0.89258,-1.18639 -0.89258,-2.31054 0,-2.12346 1.62361,-3.18555 4.87304,-3.18555 1.0984,0 2.60903,0.18776 4.53125,0.5625 1.96796,0.33306 4.21136,0.5 6.72852,0.5 1.92222,0 4.00354,-0.1878 6.24609,-0.5625 2.24256,-0.41638 3.73061,-0.625 4.46289,-0.625 1.64759,0 3.02075,0.31294 4.11914,0.9375 1.0984,0.62455 1.64649,1.47798 1.64649,2.56055 0,1.99851 -1.60102,3.06062 -4.80469,3.18554 -2.47142,0.0833 -3.70703,0.83244 -3.70703,2.24805 0,0.66617 0.36537,1.91407 1.09766,3.74609 3.38672,8.20235 9.97739,26.1478 19.77148,53.83594 0.36611,0.95762 0.66372,1.4375 0.89258,1.4375 0.2287,0 0.48114,-0.43816 0.75586,-1.3125 l 2.89062,-8.80469 9.10743,-32.43945 c 3.42674,-11.92373 5.62139,-19.82118 6.58398,-23.69336 1.00107,-3.93361 1.50195,-6.97578 1.50195,-9.12695 0,-0.73755 -0.17299,-2.05951 -0.51953,-3.96485 -0.30802,-1.9668 -0.46289,-3.37975 -0.46289,-4.24023 0,-1.78244 0.59744,-2.67383 1.79102,-2.67383 z m -29.4375,146.42578 c 3.66132,0 7.23068,0.58222 10.70898,1.74805 3.47827,1.12415 5.2168,2.33229 5.2168,3.62305 0,0.79108 0.0923,1.76974 0.27539,2.93554 0.18308,1.16583 0.27344,2.10274 0.27344,2.81055 0,0.87437 -0.25049,1.64438 -0.75391,2.31055 -0.45765,0.6662 -1.05287,0.99804 -1.78516,0.99804 -1.05262,0 -1.80793,-0.22755 -2.26562,-0.68554 -0.41188,-0.49966 -0.80183,-1.35311 -1.16797,-2.56055 -0.36614,-1.20744 -0.9594,-2.16521 -1.7832,-2.87305 -0.8238,-0.7078 -1.92388,-1.35458 -3.29688,-1.9375 -1.37302,-0.58291 -2.90625,-0.87304 -4.59961,-0.87304 -1.69336,0 -3.31696,0.49878 -4.87304,1.49804 -1.51031,0.95766 -2.26563,1.99886 -2.26563,3.12305 0,0.95762 0.48029,1.93628 1.44141,2.93555 1.00688,0.99929 4.1657,2.76879 9.47461,5.30859 5.30894,2.53983 8.87831,5.03763 10.70898,7.49414 1.87645,2.41491 2.81445,4.97528 2.81445,7.68164 0,4.20526 -1.94576,7.5565 -5.83593,10.05469 -3.84442,2.49819 -8.83211,3.74805 -14.96485,3.74805 -3.38672,0 -6.7734,-0.68654 -10.16015,-2.06055 -3.34095,-1.33236 -5.01172,-2.68655 -5.01172,-4.06055 0,-1.12418 -0.0923,-2.49727 -0.27539,-4.12109 -0.18309,-1.66546 -0.27344,-2.99879 -0.27344,-3.99805 0,-2.04017 1.02839,-3.05859 3.08789,-3.05859 0.59497,0 1.14501,0.22755 1.64844,0.68554 0.50342,0.458 1.30391,1.99994 2.40234,4.62305 1.09839,2.58145 2.42638,4.35099 3.98242,5.30859 1.60185,0.95767 3.38556,1.43555 5.35352,1.43555 2.42565,0 4.48633,-0.72826 6.17969,-2.18555 1.69336,-1.45725 2.53906,-3.33108 2.53906,-5.62109 0,-1.49889 -0.57067,-2.89482 -1.71485,-4.18555 -1.14416,-1.33236 -4.28039,-3.10186 -9.40624,-5.30859 -5.08012,-2.20673 -8.39705,-4.34983 -9.95313,-6.43164 -1.51027,-2.12345 -2.26562,-4.41454 -2.26563,-6.87109 0,-3.24764 1.64623,-5.97494 4.94141,-8.18164 3.34098,-2.20673 7.20991,-3.3086 11.60352,-3.3086 z m 82.52929,2.06055 c 2.3341,0 3.5,0.72829 3.5,2.18555 0,1.08254 -0.18268,1.74823 -0.54882,1.99804 -0.32038,0.20835 -1.60119,0.54215 -3.84375,1 -2.19682,0.41635 -3.70745,0.81276 -4.53125,1.1875 -0.8238,0.3331 -1.6695,1.04051 -2.53907,2.12305 -0.82379,1.04091 -1.83155,2.68525 -3.02148,4.93359 l -14.75977,28.41602 c -0.0915,0.16656 -0.22902,0.47951 -0.41211,0.9375 -0.77802,1.83199 -1.71606,2.74805 -2.81445,2.74805 -0.96111,0 -1.9217,-0.91606 -2.88281,-2.74805 L 597.3865,629.52278 c -0.91534,-1.70707 -2.24135,-3.103 -3.98047,-4.18555 -1.6934,-1.12419 -3.27374,-1.68555 -4.73828,-1.68555 -1.60182,0 -2.83747,-0.25036 -3.70704,-0.75 -0.86956,-0.54127 -1.30273,-1.1861 -1.30273,-1.93554 0,-1.7071 1.1659,-2.56055 3.5,-2.56055 2.19679,0 4.37044,0.18776 6.52148,0.5625 2.15105,0.37471 3.82179,0.56055 5.01172,0.56055 1.41877,0 3.36456,-0.18584 5.83594,-0.56055 2.51719,-0.37474 4.37061,-0.5625 5.56055,-0.5625 1.64758,0 2.81348,0.20862 3.5,0.625 0.73225,0.37471 1.09961,1.01953 1.09961,1.93555 0,0.54127 -0.22985,1.01919 -0.6875,1.43554 -0.45769,0.41638 -1.50867,0.79193 -3.15625,1.125 -1.60186,0.3331 -2.60961,0.6669 -3.02149,1 -0.36614,0.3331 -0.54883,0.72756 -0.54883,1.18555 0,0.41635 0.45771,1.52017 1.37305,3.31055 l 9.4043,17.92382 c 0.50342,0.91599 0.93855,1.375 1.30469,1.375 0.50342,0 1.05347,-0.60506 1.64843,-1.8125 l 9.12891,-17.48632 c 0.50343,-0.87437 0.75586,-1.853 0.75586,-2.93555 0,-1.24908 -0.82311,-2.03995 -2.4707,-2.37305 -1.60185,-0.37474 -2.67737,-0.72943 -3.22657,-1.0625 -0.54919,-0.3331 -0.82422,-0.93618 -0.82422,-1.81054 0,-1.08255 0.29762,-1.76909 0.89258,-2.06055 0.59497,-0.33307 1.53298,-0.5 2.81446,-0.5 0.96108,0 2.15151,0.14607 3.57031,0.4375 1.41876,0.29146 3.13471,0.4375 5.14844,0.4375 1.92218,0 3.73043,-0.16693 5.42382,-0.5 1.73914,-0.3331 3.01995,-0.5 3.84375,-0.5 z"
       id="rect5114"
       inkscape:connector-curvature="0"
       inkscape:export-filename="C:\Users\admin\Desktop\WebAppSV\Acabados Inkscape\Logo_WebAppSV_Relleno.png"
       inkscape:export-xdpi="100.4"
       inkscape:export-ydpi="100.4" />
  </g>
</svg>
